<?xml version="1.0" encoding="utf-8"?>
<!-- Generator: Adobe Illustrator 15.0.2, SVG Export Plug-In  -->
<!DOCTYPE svg PUBLIC "-//W3C//DTD SVG 1.1//EN" "http://www.w3.org/Graphics/SVG/1.1/DTD/svg11.dtd" [
	<!ENTITY ns_flows "http://ns.adobe.com/Flows/1.0/">
]>
<svg version="1.1"
	 xmlns="http://www.w3.org/2000/svg" xmlns:xlink="http://www.w3.org/1999/xlink" xmlns:a="http://ns.adobe.com/AdobeSVGViewerExtensions/3.0/"
	 x="0px" y="0px" width="294px" height="273px" viewBox="-0.025 -0.097 294 273"
	 overflow="visible" enable-background="new -0.025 -0.097 294 273" xml:space="preserve">
<defs>
</defs>
<path fill="#EAEAEA" d="M147.717,5.717c39.859,0,76.583,18.157,101.162,49.917h16.373V75.42
	c13.18,3.277,22.342,13.662,22.342,25.998v70.724c0,12.336-9.162,22.72-22.342,25.996v19.783h-17.135
	c-24.576,31.139-61.029,48.947-100.4,48.947c-39.37,0-75.821-17.809-100.399-48.947H29.349v-19.783
	c-13.18-3.275-22.342-13.66-22.342-25.996v-70.724c0-12.335,9.162-22.721,22.342-25.998V55.634h17.208
	C71.136,23.875,107.86,5.717,147.717,5.717 M147.717,0C107.132,0,69.414,18.155,43.79,49.917H29.349h-5.717v5.717v15.575
	C10.1,76.231,1.29,87.912,1.29,101.417v70.724c0,13.508,8.807,25.188,22.342,30.207v15.572v5.717h5.717h15.233
	c25.616,31.145,63.044,48.947,103.135,48.947c40.091,0,77.522-17.803,103.136-48.947h14.398h5.717v-5.717v-15.572
	c13.532-5.021,22.342-16.701,22.342-30.207v-70.724c0-13.506-8.81-25.186-22.342-30.208V55.634v-5.717h-5.717h-13.604
	C226.021,18.155,188.305,0,147.717,0L147.717,0z"/>
<path fill="#FFFFFF" d="M146.427,0C105.841,0,68.124,18.155,42.5,49.917H28.059h-5.717v5.717v15.575
	C8.809,76.231,0,87.912,0,101.417v70.724c0,13.508,8.807,25.188,22.342,30.207v15.572v5.717h5.717h15.233
	c25.616,31.145,63.044,48.947,103.135,48.947c40.091,0,77.522-17.803,103.135-48.947h14.398h5.717v-5.717v-15.572
	c13.533-5.021,22.342-16.701,22.342-30.207v-70.724c0-13.506-8.809-25.186-22.342-30.208V55.634v-5.717h-5.717h-13.603
	C224.731,18.155,187.014,0,146.427,0L146.427,0z"/>
<path fill="#D1D2D2" d="M147.717,5.717c39.859,0,76.583,18.157,101.162,49.917h16.373V75.42
	c13.18,3.277,22.342,13.662,22.342,25.998v70.724c0,12.336-9.162,22.72-22.342,25.996v19.783h-17.135
	c-24.576,31.139-61.029,48.947-100.4,48.947c-39.37,0-75.821-17.809-100.399-48.947H29.349v-19.783
	c-13.18-3.275-22.342-13.66-22.342-25.996v-70.724c0-12.335,9.162-22.721,22.342-25.998V55.634h17.208
	C71.136,23.875,107.86,5.717,147.717,5.717 M147.717,4.288c-39.95,0-77.037,18.186-101.859,49.916H29.349h-1.43v1.43V74.32
	c-13.41,3.771-22.341,14.538-22.341,27.098v70.724c0,12.561,8.931,23.327,22.341,27.096v18.684v1.43h1.43h17.278
	c24.823,31.115,61.628,48.947,101.09,48.947c39.464,0,76.269-17.832,101.091-48.947h16.443h1.43v-1.43v-18.684
	c13.41-3.769,22.341-14.535,22.341-27.096v-70.724c0-12.56-8.931-23.327-22.341-27.098V55.634v-1.43h-1.43h-15.674
	C224.756,22.474,187.669,4.288,147.717,4.288L147.717,4.288z"/>
<path fill="#444444" d="M147.717,264.446c-39.009,0-75.097-17.822-99.218-48.947H31.77v-19.311
	c-13.076-2.474-22.34-12.293-22.34-24.047v-70.724c0-11.752,9.266-21.571,22.34-24.048V58.056h15.983
	c24.115-31.741,60.475-49.917,99.964-49.917c39.491,0,75.853,18.175,99.967,49.917h15.146V77.37
	c13.075,2.477,22.341,12.295,22.341,24.048v70.724c0,11.754-9.265,21.573-22.341,24.047v19.311h-15.896
	C222.816,246.624,186.729,264.446,147.717,264.446L147.717,264.446z M36.931,210.337h14.121l0.775,1.02
	c23.135,30.459,58.086,47.93,95.891,47.93c37.806,0,72.757-17.471,95.89-47.93l0.775-1.02h13.287v-18.65l2.273-0.273
	c11.627-1.395,20.066-9.5,20.066-19.271v-70.724c0-9.771-8.439-17.876-20.068-19.275l-2.271-0.273V63.217H245.1l-0.773-1.04
	C221.203,31.115,185.989,13.3,147.717,13.3c-38.271,0-73.483,17.815-96.606,48.877l-0.774,1.04H36.931v18.652l-2.272,0.273
	c-11.628,1.398-20.068,9.504-20.068,19.275v70.724c0,9.771,8.439,17.877,20.067,19.271l2.273,0.273V210.337L36.931,210.337z"/>
<path fill="#D1D2D2" d="M111.939,45.542c1.488,1.531,2.218,2.303,3.645,3.871c2.34-0.249,3.508-0.347,5.844-0.491
	c-1.393,1.736-2.063,2.614-3.363,4.387c0.805,1.907,1.2,2.866,1.973,4.781c-2.101-0.526-3.167-0.771-5.321-1.208
	c-1.702,1.431-2.531,2.161-4.147,3.646c-0.199-2.066-0.29-3.102-0.458-5.172c-1.967-0.931-2.968-1.377-5.004-2.232
	c2.14-1.004,3.221-1.488,5.404-2.405C111.048,48.647,111.333,47.612,111.939,45.542z"/>
<path fill="#D1D2D2" d="M182.193,45.539c0.609,2.069,0.893,3.106,1.432,5.18c2.184,0.916,3.263,1.4,5.402,2.405
	c-2.033,0.855-3.037,1.305-5.005,2.233c-0.167,2.072-0.261,3.105-0.458,5.171c-1.615-1.486-2.449-2.216-4.146-3.646
	c-2.154,0.437-3.221,0.682-5.324,1.208c0.776-1.915,1.174-2.874,1.979-4.781c-1.299-1.773-1.973-2.651-3.361-4.387
	c2.332,0.144,3.498,0.243,5.839,0.495C179.977,47.847,180.707,47.069,182.193,45.539z"/>
<path fill="#444444" d="M165.768,62.977c-1.68-1.283-10.074-1.924-18.467-1.924c-8.395,0-16.787,0.642-18.468,1.924
	c3.358-2.565,3.358-25.664,0-28.229c3.358,2.565,11.192,12.832,9.576,12.546c1.617,0.286,8.331-9.98,8.206-12.546
	c0.125,2.565,8.333,12.832,10.035,12.546c-1.701,0.286,5.762-9.98,9.119-12.546C162.41,37.313,162.41,60.412,165.768,62.977z"/>
<path fill="#444444" d="M165.268,68.587c-1.143-0.872-7.682-1.756-17.967-1.756c-10.288,0-16.826,0.885-17.97,1.756l-0.996-1.305
	c2.609-1.991,16.256-2.092,18.966-2.092s16.356,0.101,18.965,2.092L165.268,68.587L165.268,68.587z"/>
</svg>
